# xmcd
#
# Track frame offsets: 
#        150
#        17641
#        28018
#        41567
#        63067
#        81386
#        98263
#        115023
#        128529
#        141652
#        161958
#        172431
#        187883
#        200279
#        211773
#        226995
#        236518
#        250419
#        264690
#        284333
#        299786
#        312173
#        325153
#        336955
#        344764
#        353408
#
# Disc length: 4758 seconds
#
# Revision: 1
# Processed by: cddbd v1.5.2PL0 Copyright (c) Steve Scherf et al.
# Submitted via: ExactAudioCopy v1.3
#
DISCID=8912941a
DTITLE=Lester Flatt and Bill Monroe, 1974 - Flatt on Victor Plus More_CD
DTITLE=6 ''Live at the Vanderbilt''
DYEAR=1999
DGENRE=Bluegrass
TTITLE0=Flint Hill Special
TTITLE1=Lost All My Money
TTITLE2=Ill Be All Smiles Tonight
TTITLE3=Homestead On The Farm
TTITLE4=Lester Flatt and Bill Monroe, 1999 - Rawhide
TTITLE5=Wabash Cannon Ball
TTITLE6=Orange Blossom Special
TTITLE7=Nine Pound Hammer
TTITLE8=Get In Line Brother
TTITLE9=Lester Flatt and Bill Monroe, 1999 - The Fall Is A Lonsesome Tim
TTITLE9=e For Me
TTITLE10=Lester Flatt and Bill Monroe, 1999 - I Know What It Means To Be
TTITLE10=Lonesome
TTITLE11=Dig A Hole In The Meadow
TTITLE12=Lester Flatt and Bill Monroe, 1999 - Uncle Pen
TTITLE13=Blue Moon Of Kentucky
TTITLE14=Lester Flatt and Bill Monroe, 1999 - My Old Used To Be
TTITLE15=Will You Be Lovin' Another Man
TTITLE16=My Little Cabin Home On the Hill
TTITLE17=Lester Flatt and Bill Monroe, 1999 - Crying Holy Unto The Lord
TTITLE18=Lester Flatt and Bill Monroe, 1999 - Sally Goodin'
TTITLE19=Lester Flatt and Bill Monroe, 1999 - Muleskinner Blues
TTITLE20=Salty Dog Blues
TTITLE21=Lester Flatt and Bill Monroe, 1999 - Red Wing
TTITLE22=Lester Flatt and Bill Monroe, 1999 - Wreck Of The Old '97
TTITLE23=Lester Flatt and Bill Monroe, 1999 - Martha White Theme
TTITLE24=Cumberland Gap
TTITLE25=Foggy Mountain Breakdown
EXTD=YEAR: 2002 ID3G: 2
EXTT0=
EXTT1=
EXTT2=
EXTT3=
EXTT4=
EXTT5=
EXTT6=
EXTT7=
EXTT8=
EXTT9=
EXTT10=
EXTT11=
EXTT12=
EXTT13=
EXTT14=
EXTT15=
EXTT16=
EXTT17=
EXTT18=
EXTT19=
EXTT20=
EXTT21=
EXTT22=
EXTT23=
EXTT24=
EXTT25=
PLAYORDER=
